<svg width="277" height="63" viewBox="0 0 277 63" fill="none" xmlns="http://www.w3.org/2000/svg">
<path d="M257.593 35.5523L262.436 24.4316C262.998 23.0731 263.599 21.3772 263.637 21.3772H263.674C263.712 21.3772 264.313 23.0731 264.876 24.4316L269.718 35.5523H257.593ZM273.922 45.1627H276.286L264.615 18.7742H262.7L251.029 45.1627H253.394L256.732 37.4719H270.579L273.922 45.1627ZM230.35 43.0913V18.7742H228.213V45.1627H244.915V43.0871H230.35V43.0913ZM219.805 25.1446C217.44 20.9595 213.014 18.2468 207.869 18.2468C200.327 18.2468 194.246 24.0139 194.246 31.9706C194.246 39.9272 200.327 45.6943 207.869 45.6943C213.35 45.6943 218.003 42.7158 220.179 38.0414L218.041 37.4381C216.164 41.1338 212.338 43.5469 207.869 43.5469C201.49 43.5469 196.459 38.8345 196.459 31.9748C196.459 25.0391 201.415 20.3647 207.869 20.3647C211.998 20.3647 215.677 22.3981 217.625 25.7183L219.805 25.1446ZM185.317 18.7742H183.18V45.1627H185.317V18.7742ZM160.434 43.0913V18.7742H158.297V45.1627H174.999V43.0871H160.434V43.0913ZM131.612 35.5523L136.454 24.4316C137.017 23.0731 137.618 21.3772 137.656 21.3772H137.693C137.731 21.3772 138.332 23.0731 138.894 24.4316L143.737 35.5523H131.612ZM147.941 45.1627H150.305L138.634 18.7742H136.719L125.048 45.1627H127.413L130.751 37.4719H144.598L147.941 45.1627ZM102.79 18.7742V20.8456H111.761V45.1627H113.936V20.8456H122.944V18.7742H102.79V18.7742ZM96.9358 25.2585C96.1463 20.9975 92.4716 18.2468 87.7806 18.2468C82.6024 18.2468 78.8101 21.1114 78.8101 25.2205C78.8101 29.743 83.4633 31.0256 86.4661 31.8946C90.145 32.9873 95.0964 33.8184 95.0964 38.1891C95.0964 41.3574 92.3582 43.6946 88.0031 43.6946C83.3121 43.6946 80.6118 40.7921 80.3094 37.4001L78.2432 37.9655C78.8059 42.3024 82.258 45.6943 87.9276 45.6943C93.5929 45.6943 97.3474 42.4922 97.3474 38.1553C97.3474 32.8396 92.1314 31.3715 88.4903 30.3505C84.9248 29.3718 81.0233 28.3508 81.0233 25.1488C81.0233 22.0564 83.8371 20.2086 87.7008 20.2086C91.3797 20.2086 94.269 22.318 94.8318 25.8238L96.9358 25.2585Z" fill="white"/>
<path d="M31.0306 26.8149C28.2672 26.8149 26.0288 29.0636 26.0288 31.8395C26.0288 34.6155 28.2672 36.8641 31.0306 36.8641C33.794 36.8641 36.0324 34.6155 36.0324 31.8395C36.0366 29.0636 33.794 26.8149 31.0306 26.8149Z" fill="white"/>
<path d="M46.3721 4.79713C44.9946 4.004 43.5499 3.31212 42.0465 2.73836C38.6196 1.42632 34.9113 0.700684 31.0308 0.700684C27.1503 0.700684 23.4378 1.42632 20.0109 2.74258C18.5116 3.31634 17.067 4.00822 15.6853 4.80135C6.34527 10.1677 0.0332031 20.2759 0.0332031 31.8396C0.0332031 43.416 6.35367 53.5242 15.7063 58.8905C17.0838 59.6795 18.5242 60.3671 20.0193 60.9409C23.442 62.2529 27.1503 62.9786 31.0308 62.9786C34.9071 62.9786 38.6154 62.2529 42.0381 60.9451C43.5373 60.3713 44.9736 59.6837 46.3511 58.8948C55.7079 53.5285 62.0284 43.4118 62.0284 31.8396C62.0326 20.2717 55.7163 10.1634 46.3721 4.79713ZM31.0308 5.40886C34.1007 5.40886 37.0447 5.94465 39.7871 6.91919C38.5566 8.3367 36.9355 9.72047 35.1297 11.0789C33.832 12.0577 32.4377 13.0238 31.0308 13.9815C29.7037 13.0786 28.3976 12.1716 27.1671 11.2519C25.2689 9.8386 23.5554 8.39577 22.2745 6.92341C25.0127 5.94465 27.9609 5.40886 31.0308 5.40886ZM31.0308 58.2704C27.9944 58.2704 25.0799 57.743 22.3627 56.7896C24.4835 54.4102 27.7215 52.1025 31.0308 49.837C32.4293 50.7989 33.8194 51.765 35.1171 52.7395C36.8851 54.0727 38.4768 55.4185 39.6989 56.7896C36.9859 57.743 34.0671 58.2704 31.0308 58.2704ZM44.1127 54.7561C42.7898 53.0433 41.0721 51.4486 39.1613 49.9214C37.9014 48.9173 36.5575 47.9428 35.1843 46.9809C41.3115 42.6904 46.8383 38.075 46.8383 31.8523C46.8383 27.0386 43.5247 23.2122 39.1949 19.7654C38.7749 20.065 38.3382 20.3772 37.872 20.6978C36.9691 21.3264 36.0536 21.9465 35.1339 22.5667C39.0689 25.5241 42.1473 28.5911 42.1473 31.8523C42.1473 36.2019 36.7129 40.2392 31.0308 44.1374C30.5604 44.4623 30.0901 44.7829 29.6197 45.1035C28.7042 45.7279 27.7887 46.3523 26.8815 46.9851C23.421 49.4025 20.1453 51.9169 17.9489 54.7561C10.0536 50.1914 4.72001 41.6314 4.72001 31.8396C4.72001 22.0773 10.02 13.5385 17.8817 8.96109C19.2676 10.7963 21.107 12.4922 23.1565 14.1038C24.3366 15.0319 25.5839 15.9348 26.8605 16.8207C25.4831 17.7784 24.1308 18.7529 22.8709 19.7612C18.541 23.2122 15.2275 27.0344 15.2275 31.8523C15.2275 36.6786 18.5578 40.543 22.9087 44.0319C24.2526 43.0658 25.6175 42.1335 26.9529 41.2264C23.0011 38.2269 19.9143 35.1303 19.9143 31.8523C19.9143 28.5911 22.9927 25.5241 26.9277 22.5667C28.2296 21.5879 29.6239 20.6218 31.0308 19.6642C31.4592 19.3731 31.8875 19.0862 32.3117 18.7951C33.2776 18.1454 34.2435 17.4873 35.1968 16.8207C36.5743 15.863 37.9224 14.8885 39.1865 13.8802C41.1226 12.3361 42.8528 10.7119 44.1757 8.95687C52.0332 13.5343 57.3374 22.0731 57.3374 31.8354C57.3416 41.6314 52.0122 50.1872 44.1127 54.7561Z" fill="white"/>
</svg>
